# xmcd
#
# Track frame offsets: 
#        150
#        17578
#        36367
#        52115
#        68511
#        84736
#        106085
#        125749
#        148323
#        174873
#        191893
#        208643
#        223320
#
# Disc length: 3201 seconds
#
# Revision: 1
# Processed by: cddbd v1.5.2PL0 Copyright (c) Steve Scherf et al.
# Submitted via: ExactAudioCopy v1.0b3
#
DISCID=c60c7f0d
DTITLE=The Delta Sonics - Never Enough
DYEAR=2007
DGENRE=Blues
TTITLE0=Coast To Coast
TTITLE1=My Baby Wants A Big Rock Star
TTITLE2=She's So Crazy
TTITLE3=Customized
TTITLE4=Call My Job
TTITLE5=I Gotta Girlfriend
TTITLE6=When I Get Drunk
TTITLE7=She Wouldn't Let Me In
TTITLE8=Shoulda Stayed Home
TTITLE9=Boogie Woogie Woman
TTITLE10=It's Never Enough
TTITLE11=Baby
TTITLE12=Blow Wind Blow
EXTD=
EXTT0=
EXTT1=
EXTT2=
EXTT3=
EXTT4=
EXTT5=
EXTT6=
EXTT7=
EXTT8=
EXTT9=
EXTT10=
EXTT11=
EXTT12=
PLAYORDER=
